<?xml version="1.0" encoding="UTF-8"?>
<svg id="Capa_2" data-name="Capa 2" xmlns="http://www.w3.org/2000/svg" viewBox="0 0 56.97 53.28">
  <defs>
    <style>
      .cls-1 {
        fill: #04853d;
        stroke-width: 0px;
      }

      .cls-2 {
        letter-spacing: .02em;
      }

      .cls-3 {
        letter-spacing: 0em;
      }

      .cls-4 {
        letter-spacing: .01em;
      }

      .cls-5 {
        font-size: 3.3px;
      }

      .cls-5, .cls-6 {
        fill: #09853c;
        font-family: MyriadPro-Regular, 'Myriad Pro';
      }

      .cls-6 {
        font-size: 3.36px;
      }
    </style>
  </defs>
  <g id="Capa_1-2" data-name="Capa 1">
    <g>
      <g>
        <path class="cls-1" d="M30.66,11.21c-5.5,9.45-10.94,18.8-16.39,28.15-3.4-4.42-4.49-13.02-.13-19.72,2.42-3.71,5.73-6.25,9.92-7.63,2.1-.69,4.26-1.02,6.6-.8Z"/>
        <path class="cls-1" d="M40.72,14.88c7.67,5.38,10.36,17.86,2.92,26.62-.98-8.9-1.95-17.72-2.92-26.62Z"/>
        <path class="cls-1" d="M33.42,14.03c.13,1.19.26,2.38.39,3.57.28,2.49.56,4.98.83,7.47.26,2.4.51,4.8.77,7.21.27,2.49.55,4.98.82,7.47.23,2.07.45,4.14.68,6.2.04.38-.03.67-.55.72-.11-.91-.23-1.81-.33-2.71-.28-2.42-.56-4.83-.83-7.25-.23-2.05-.43-4.1-.65-6.16-.28-2.54-.56-5.08-.84-7.62-.13-1.19-.42-1.53-1.57-1.8-.32-.08-.66-.13-.99-.18-.6-.09-.95.25-1.24.72-1.05,1.73-2.12,3.47-3.17,5.2-1.93,3.17-3.85,6.34-5.77,9.51-1.22,2.01-2.44,4.01-3.66,6.01-.09.14-.19.28-.28.42-.07-.02-.13-.05-.2-.07.07-.23.09-.48.21-.68,1.42-2.48,2.86-4.95,4.29-7.43,3.41-5.92,6.82-11.84,10.24-17.75.56-.97,1.16-1.93,1.74-2.89.05.01.09.03.14.04Z"/>
        <path class="cls-1" d="M19.65,45.01c-.24-.15-.43-.27-.65-.41,3.37-5.7,6.72-11.36,10.13-17.13.87,6.87,1.72,13.6,2.58,20.37-.47.04-.86.07-1.31.11-.15-1.36-.3-2.7-.44-4.05-.28-2.59-.56-5.19-.84-7.78-.08-.79-.14-1.58-.23-2.37-.06-.56-.34-.78-.9-.85-1.14-.13-1.88.38-2.4,1.35-1.89,3.45-3.79,6.9-5.69,10.35-.07.12-.15.23-.26.41Z"/>
        <path class="cls-1" d="M25.94,37.23c.33,3.53.65,6.97.99,10.54-.75-.15-1.49-.23-2.17-.45-1.05-.34-2.08-.78-3.11-1.17-.31-.12-.35-.28-.19-.57,1.44-2.71,2.88-5.43,4.31-8.14.02-.04.06-.08.17-.21Z"/>
      </g>
      <text class="cls-6" transform="translate(11.11 36.99) rotate(-109.44) scale(.98 1) skewX(-.16)"><tspan x="0" y="0">C</tspan></text>
      <text class="cls-6" transform="translate(10.51 35.34) rotate(-103.94) scale(.98 1) skewX(-.16)"><tspan x="0" y="0">O</tspan></text>
      <text class="cls-6" transform="translate(9.99 33.17) rotate(-98.56) scale(.98 1) skewX(-.15)"><tspan x="0" y="0">L</tspan></text>
      <text class="cls-6" transform="translate(9.77 31.71) rotate(-94.2) scale(.98 1) skewX(-.13)"><tspan x="0" y="0">E</tspan></text>
      <text class="cls-6" transform="translate(9.64 30.13) rotate(-88.9) scale(.98 1) skewX(-.11)"><tspan x="0" y="0">G</tspan></text>
      <text class="cls-6" transform="translate(9.7 28.06) rotate(-84.88) scale(.98 1) skewX(-.1)"><tspan x="0" y="0">I</tspan></text>
      <text class="cls-6" transform="translate(9.73 27.32) rotate(-80.63) scale(.98 1) skewX(-.07)"><tspan x="0" y="0">O</tspan></text>
      <text class="cls-6" transform="translate(10.12 25.13) rotate(-76.49) scale(.98 1) skewX(-.05)"><tspan x="0" y="0"> </tspan></text>
      <text class="cls-6" transform="translate(10.26 24.48) rotate(-73.06) scale(.98 1) skewX(-.03)"><tspan x="0" y="0">R</tspan></text>
      <text class="cls-6" transform="translate(10.77 22.83) rotate(-68.34) scale(.98 1)"><tspan x="0" y="0">E</tspan></text>
      <text class="cls-6" transform="translate(11.32 21.39) rotate(-63.21) scale(.98 1) skewX(.02)"><tspan x="0" y="0">G</tspan></text>
      <text class="cls-6" transform="translate(12.28 19.55) rotate(-59.17) scale(.98 1) skewX(.04)"><tspan x="0" y="0">I</tspan></text>
      <text class="cls-6" transform="translate(12.65 18.87) rotate(-54.86) scale(.98 1) skewX(.07)"><tspan x="0" y="0">O</tspan></text>
      <text class="cls-6" transform="translate(13.91 17.08) rotate(-48.68) scale(.98 1) skewX(.1)"><tspan x="0" y="0">N</tspan></text>
      <text class="cls-6" transform="translate(15.3 15.5) rotate(-42.79) scale(.98 1) skewX(.12)"><tspan x="0" y="0">A</tspan></text>
      <text class="cls-6" transform="translate(16.73 14.18) rotate(-37.81) scale(.98 1) skewX(.14)"><tspan x="0" y="0">L</tspan></text>
      <text class="cls-6" transform="translate(17.93 13.27) rotate(-34.67) scale(.98 1) skewX(.15)"><tspan x="0" y="0"> </tspan></text>
      <text class="cls-6" transform="translate(18.46 12.87) rotate(-30.61) scale(.98 1) skewX(.16)"><tspan x="0" y="0">D</tspan></text>
      <text class="cls-6" transform="translate(20.31 11.78) rotate(-25.27) scale(.98 1) skewX(.16)"><tspan x="0" y="0">E</tspan></text>
      <text class="cls-6" transform="translate(21.75 11.12) rotate(-22.84) scale(.98 1) skewX(.16)"><tspan x="0" y="0"> </tspan></text>
      <text class="cls-6" transform="translate(22.36 10.86) rotate(-18.99) scale(.98 1) skewX(.16)"><tspan x="0" y="0">L</tspan></text>
      <text class="cls-6" transform="translate(23.81 10.37) rotate(-15.73) scale(.98 1) skewX(.16)"><tspan x="0" y="0">I</tspan></text>
      <text class="cls-6" transform="translate(24.5 10.15) rotate(-12.03) scale(.98 1) skewX(.15)"><tspan x="0" y="0">C</tspan></text>
      <text class="cls-6" transform="translate(26.32 9.77) rotate(-7.09) scale(.98 1) skewX(.14)"><tspan x="0" y="0">E</tspan></text>
      <text class="cls-6" transform="translate(27.88 9.56) rotate(-1.76) scale(.98 1) skewX(.12)"><tspan x="0" y="0">N</tspan></text>
      <text class="cls-6" transform="translate(29.98 9.5) rotate(3.94) scale(.98 1) skewX(.1)"><tspan x="0" y="0">C</tspan></text>
      <text class="cls-6" transform="translate(31.84 9.64) rotate(7.67) scale(.98 1) skewX(.08)"><tspan x="0" y="0">I</tspan></text>
      <text class="cls-6" transform="translate(32.58 9.72) rotate(11.56) scale(.98 1) skewX(.06)"><tspan x="0" y="0">A</tspan></text>
      <text class="cls-6" transform="translate(34.5 10.11) rotate(17.38) scale(.98 1) skewX(.03)"><tspan x="0" y="0">D</tspan></text>
      <text class="cls-6" transform="translate(36.53 10.74) rotate(23.52) scale(.98 1)"><tspan x="0" y="0">O</tspan></text>
      <text class="cls-6" transform="translate(38.56 11.63) rotate(28.89) scale(.98 1) skewX(-.03)"><tspan x="0" y="0">S</tspan></text>
      <text class="cls-6" transform="translate(39.96 12.42) rotate(32.13) scale(.98 1) skewX(-.05)"><tspan x="0" y="0"> </tspan></text>
      <text class="cls-6" transform="translate(40.52 12.76) rotate(35.3) scale(.98 1) skewX(-.07)"><tspan x="0" y="0">E</tspan></text>
      <text class="cls-6" transform="translate(41.81 13.65) rotate(40.56) scale(.98 1) skewX(-.09)"><tspan x="0" y="0">N</tspan></text>
      <text class="cls-6" transform="translate(43.42 15.06) rotate(44.57) scale(.98 1) skewX(-.11)"><tspan x="0" y="0"> </tspan></text>
      <text class="cls-6" transform="translate(43.9 15.5) rotate(48.34) scale(.98 1) skewX(-.13)"><tspan x="0" y="0">A</tspan></text>
      <text class="cls-6" transform="translate(45.2 16.95) rotate(54.18) scale(.98 1) skewX(-.14)"><tspan x="0" y="0">D</tspan></text>
      <text class="cls-6" transform="translate(46.46 18.66) rotate(60.89) scale(.98 1) skewX(-.16)"><tspan x="0" y="0">M</tspan></text>
      <text class="cls-6" transform="translate(47.69 20.94) rotate(65.59) scale(.98 1) skewX(-.16)"><tspan x="0" y="0">I</tspan></text>
      <text class="cls-6" transform="translate(48.02 21.63) rotate(69.65) scale(.98 1) skewX(-.16)"><tspan x="0" y="0">N</tspan></text>
      <text class="cls-6" transform="translate(48.73 23.6) rotate(73.63) scale(.98 1) skewX(-.16)"><tspan x="0" y="0">I</tspan></text>
      <text class="cls-6" transform="translate(48.96 24.31) rotate(76.96) scale(.98 1) skewX(-.16)"><tspan x="0" y="0">S</tspan></text>
      <text class="cls-6" transform="translate(49.32 25.86) rotate(81.53) scale(.98 1) skewX(-.15)"><tspan x="0" y="0">T</tspan></text>
      <text class="cls-6" transform="translate(49.56 27.44) rotate(86.34) scale(.98 1) skewX(-.13)"><tspan x="0" y="0">R</tspan></text>
      <text class="cls-6" transform="translate(49.67 29.15) rotate(91.62) scale(.98 1) skewX(-.11)"><tspan x="0" y="0">A</tspan></text>
      <text class="cls-6" transform="translate(49.62 31.05) rotate(96.94) scale(.98 1) skewX(-.09)"><tspan x="0" y="0">C</tspan></text>
      <text class="cls-6" transform="translate(49.38 32.92) rotate(100.75) scale(.98 1) skewX(-.07)"><tspan x="0" y="0">I</tspan></text>
      <text class="cls-6" transform="translate(49.27 33.64) rotate(104.97) scale(.98 1) skewX(-.05)"><tspan x="0" y="0">Ó</tspan></text>
      <text class="cls-6" transform="translate(48.7 35.78) rotate(111.14) scale(.98 1) skewX(-.01)"><tspan x="0" y="0">N</tspan></text>
      <g>
        <text class="cls-5" transform="translate(18.02 51.95)"><tspan class="cls-3" x="0" y="0">C</tspan><tspan class="cls-4" x="1.9" y="0">ORLAD </tspan></text>
        <text class="cls-5" transform="translate(31.36 51.95)"><tspan class="cls-2" x="0" y="0">CUS</tspan><tspan class="cls-3" x="5.83" y="0">C</tspan><tspan class="cls-4" x="7.72" y="0">O</tspan></text>
      </g>
    </g>
  </g>
</svg>