<svg xmlns="http://www.w3.org/2000/svg" xmlns:xlink="http://www.w3.org/1999/xlink" width="1080" zoomAndPan="magnify" viewBox="0 0 810 809.999993" height="1080" preserveAspectRatio="xMidYMid meet" version="1.0"><path fill="#09853d" d="M 378.105469 29.046875 C 369.5 29.582031 358.207031 30.660156 352.828125 31.625 C 347.554688 32.59375 340.78125 33.886719 337.769531 34.316406 C 334.863281 34.855469 329.484375 36.144531 325.933594 37.113281 C 322.386719 38.082031 317.652344 39.15625 315.394531 39.480469 C 313.242188 39.800781 311.089844 40.449219 310.769531 40.984375 C 310.445312 41.523438 309.15625 41.953125 307.863281 41.953125 C 306.574219 41.953125 304.097656 42.707031 302.378906 43.566406 C 300.765625 44.425781 298.183594 45.179688 296.785156 45.179688 C 295.386719 45.179688 294.203125 45.609375 294.203125 46.257812 C 294.203125 46.792969 293.125 47.332031 291.726562 47.332031 C 290.328125 47.332031 288.285156 48.085938 287.101562 48.945312 C 286.027344 49.804688 283.769531 50.558594 282.15625 50.558594 C 280.539062 50.558594 278.925781 50.988281 278.605469 51.636719 C 278.28125 52.171875 276.777344 52.710938 275.484375 52.710938 C 274.085938 52.710938 272.367188 53.464844 271.613281 54.324219 C 270.859375 55.183594 269.355469 55.9375 268.277344 55.9375 C 267.203125 55.9375 266.019531 56.367188 265.695312 57.011719 C 265.375 57.550781 264.082031 58.089844 262.898438 58.089844 C 261.824219 58.089844 260.855469 58.519531 260.855469 59.164062 C 260.855469 59.703125 260.316406 60.242188 259.671875 60.242188 C 259.027344 60.242188 256.984375 60.886719 255.15625 61.746094 C 253.21875 62.605469 250.960938 63.574219 250.097656 63.898438 C 249.238281 64.21875 246.550781 65.726562 244.183594 67.230469 C 241.816406 68.738281 239.125 70.246094 238.265625 70.675781 C 237.40625 71.105469 234.824219 72.503906 232.671875 73.902344 C 230.414062 75.300781 227.941406 76.375 227.078125 76.375 C 226.21875 76.375 225.359375 77.128906 224.925781 77.988281 C 224.605469 78.851562 223.3125 79.601562 222.128906 79.601562 C 220.949219 79.601562 219.980469 80.03125 219.980469 80.679688 C 219.980469 81.214844 219.550781 81.753906 219.011719 81.753906 C 218.472656 81.753906 215.246094 83.691406 211.804688 86.058594 C 208.253906 88.53125 203.519531 91.757812 201.15625 93.265625 C 198.789062 94.769531 196.636719 96.382812 196.3125 96.707031 C 195.992188 97.027344 193.839844 98.75 191.472656 100.578125 C 189.105469 102.300781 185.988281 104.882812 184.480469 106.171875 C 182.976562 107.570312 181.253906 108.648438 180.5 108.648438 C 179.855469 108.648438 179.101562 108.96875 178.886719 109.507812 C 178.78125 109.9375 175.984375 112.519531 172.757812 115.101562 C 163.71875 122.628906 137.796875 148.878906 133.925781 154.472656 C 133.0625 155.761719 129.621094 159.847656 126.394531 163.507812 C 123.167969 167.273438 119.617188 171.25 118.648438 172.433594 C 117.574219 173.617188 116.710938 174.910156 116.710938 175.339844 C 116.710938 175.664062 115.851562 176.953125 114.777344 178.136719 C 112.300781 180.71875 104.878906 192.335938 104.878906 193.410156 C 104.878906 193.949219 103.695312 195.453125 102.191406 196.851562 C 100.683594 198.25 99.5 199.867188 99.5 200.402344 C 99.5 201.046875 98.425781 202.984375 97.027344 204.8125 C 95.738281 206.640625 93.15625 210.945312 91.433594 214.28125 C 89.714844 217.722656 87.882812 220.519531 87.453125 220.519531 C 87.023438 220.519531 86.59375 221.488281 86.59375 222.671875 C 86.59375 223.851562 86.164062 224.820312 85.519531 224.820312 C 84.980469 224.820312 84.441406 225.683594 84.441406 226.867188 C 84.441406 227.941406 83.6875 229.445312 82.828125 230.199219 C 81.96875 230.953125 81.214844 232.457031 81.214844 233.535156 C 81.214844 234.71875 80.785156 235.578125 80.140625 235.578125 C 79.601562 235.578125 79.0625 236.222656 79.0625 237.085938 C 79.0625 237.945312 77.773438 241.171875 76.265625 244.398438 C 74.652344 247.519531 73.039062 251.070312 72.609375 252.25 C 72.179688 253.433594 70.566406 256.984375 68.953125 260.105469 C 67.445312 263.332031 66.15625 266.558594 66.15625 267.417969 C 66.15625 268.925781 65.832031 269.785156 62.605469 276.238281 C 61.636719 278.285156 60.777344 280.972656 60.777344 282.371094 C 60.777344 283.769531 60.347656 285.277344 59.699219 285.597656 C 59.164062 285.921875 58.625 287.535156 58.625 289.148438 C 58.519531 290.761719 57.871094 293.234375 57.011719 294.742188 C 56.152344 296.246094 55.507812 298.722656 55.398438 300.335938 C 55.398438 301.949219 54.96875 303.5625 54.324219 303.886719 C 53.785156 304.207031 53.246094 306.464844 53.246094 308.726562 C 53.246094 310.984375 52.816406 313.242188 52.171875 313.566406 C 51.632812 313.890625 51.09375 315.71875 51.09375 317.546875 C 51.09375 319.265625 50.449219 322.277344 49.589844 324.109375 C 48.082031 327.441406 47.332031 331.746094 46.148438 344.222656 C 45.824219 347.449219 45.285156 350.894531 44.964844 351.753906 C 41.84375 358.851562 39.046875 426.082031 41.308594 435.121094 C 41.953125 437.484375 42.707031 444.910156 43.027344 451.46875 C 44.105469 472.984375 53.675781 515.472656 62.390625 537.308594 C 63.144531 539.03125 64.328125 542.257812 65.078125 544.300781 C 65.832031 546.347656 67.015625 549.464844 67.769531 551.292969 C 68.523438 553.015625 70.457031 557.640625 72.070312 561.511719 C 75.191406 569.257812 83.042969 586.253906 87.023438 593.890625 C 91.113281 601.746094 99.824219 613.148438 101.761719 613.148438 C 102.945312 613.148438 108.644531 604.109375 118.542969 586.46875 C 126.933594 571.839844 152.316406 526.984375 175.015625 486.753906 C 330.5625 212.019531 363.90625 152.964844 395.425781 97.246094 C 414.894531 62.929688 430.816406 34.101562 430.816406 33.132812 C 430.816406 32.164062 430.167969 30.980469 429.523438 30.335938 C 427.589844 28.9375 397.039062 28.183594 378.105469 29.046875 Z M 378.105469 29.046875 " fill-opacity="1" fill-rule="nonzero"/><path fill="#09853d" d="M 481.695312 83.046875 C 480.511719 84.445312 458.785156 121.554688 458.785156 122.199219 C 458.785156 122.308594 455.878906 127.363281 452.328125 133.386719 C 448.78125 139.410156 445.875 144.574219 445.875 144.789062 C 445.875 145.113281 444.152344 148.015625 442.109375 151.242188 C 440.066406 154.472656 438.34375 157.269531 438.34375 157.484375 C 438.34375 157.804688 418.445312 193.625 412.742188 203.523438 C 411.453125 205.78125 408.65625 210.835938 406.503906 214.816406 C 404.351562 218.796875 397.683594 230.628906 391.769531 240.957031 C 385.851562 251.285156 379.503906 262.472656 377.785156 265.699219 C 375.953125 268.925781 370.578125 278.714844 365.628906 287.320312 C 360.789062 296.03125 348.738281 317.332031 339.058594 334.648438 C 322.492188 364.339844 306.574219 392.414062 266.449219 463.625 C 257.199219 479.867188 246.441406 499.015625 242.570312 506.117188 C 235.46875 518.699219 164.6875 644.34375 154.253906 662.734375 C 151.351562 667.898438 148.984375 672.738281 148.984375 673.492188 C 148.984375 676.828125 153.285156 681.992188 155.976562 681.992188 C 159.308594 681.992188 156.296875 686.722656 199.648438 613.683594 C 219.226562 580.554688 239.019531 547.097656 243.644531 539.460938 C 258.488281 514.503906 346.695312 366.058594 364.445312 336.15625 C 381.765625 306.898438 401.664062 273.550781 416.722656 248.164062 L 424.898438 234.503906 L 439.207031 234.503906 C 458.675781 234.503906 467.171875 236.871094 476.101562 244.9375 C 484.0625 252.144531 484.921875 255.261719 488.363281 290.976562 C 490.300781 310.445312 489.871094 306.789062 498.585938 388.328125 C 502.132812 421.78125 507.511719 471.585938 510.417969 499.125 C 515.363281 545.59375 529.5625 678.765625 535.585938 734.914062 C 536.984375 748.363281 538.492188 759.871094 538.921875 760.515625 C 540.214844 762.5625 545.269531 761.59375 551.078125 758.367188 C 556.347656 755.246094 556.671875 754.921875 556.671875 750.726562 C 556.671875 748.253906 551.617188 699.203125 545.375 641.761719 C 539.246094 584.316406 530.746094 505.792969 526.660156 467.390625 C 522.464844 428.878906 517.195312 379.289062 514.71875 357.132812 C 512.351562 334.972656 509.664062 310.015625 508.804688 301.734375 C 503.210938 249.5625 501.488281 233.535156 499.121094 211.914062 C 497.722656 198.574219 494.28125 167.164062 491.59375 141.992188 C 485.03125 80.464844 485.246094 82.507812 483.953125 82.078125 C 483.308594 81.863281 482.234375 82.292969 481.695312 83.046875 Z M 481.695312 83.046875 " fill-opacity="1" fill-rule="nonzero"/><path fill="#09853d" d="M 622.71875 108.214844 C 623.042969 112.304688 626.589844 146.832031 630.785156 185.019531 C 644.449219 310.339844 680.160156 641.4375 680.914062 650.042969 L 681.667969 658.324219 L 685.109375 656.28125 C 686.9375 655.097656 689.519531 652.625 690.917969 650.582031 C 693.824219 646.277344 697.050781 642.082031 701.460938 636.703125 C 703.289062 634.554688 707.589844 628.421875 711.140625 623.152344 C 714.582031 617.988281 717.703125 613.46875 718.027344 613.148438 C 718.992188 612.179688 723.511719 604.003906 724.15625 602.175781 C 724.480469 601.097656 725.125 600.238281 725.664062 600.238281 C 726.199219 600.238281 726.632812 599.269531 726.632812 598.195312 C 726.632812 597.011719 727.0625 595.71875 727.707031 595.398438 C 728.246094 595.074219 730.179688 591.742188 732.007812 588.082031 C 733.730469 584.425781 736.636719 578.832031 738.464844 575.710938 C 740.183594 572.59375 741.691406 569.367188 741.691406 568.613281 C 741.691406 567.753906 742.445312 566.570312 743.304688 565.816406 C 744.164062 565.0625 744.917969 563.34375 744.917969 561.945312 C 744.917969 560.652344 745.457031 559.148438 745.992188 558.824219 C 746.640625 558.5 747.070312 557.316406 747.070312 556.242188 C 747.070312 554.519531 748.898438 549.894531 751.480469 545.164062 C 752.015625 544.085938 752.449219 542.472656 752.449219 541.613281 C 752.449219 540 752.769531 539.140625 755.996094 532.683594 C 756.964844 530.640625 757.824219 527.628906 757.824219 525.90625 C 757.824219 524.1875 758.363281 522.789062 758.902344 522.789062 C 759.546875 522.789062 759.976562 521.390625 759.976562 519.667969 C 759.976562 517.839844 760.40625 516.226562 760.945312 515.902344 C 761.484375 515.582031 762.238281 513.105469 762.558594 510.417969 C 762.988281 507.835938 763.742188 505.363281 764.386719 505.039062 C 764.925781 504.609375 765.355469 502.242188 765.355469 499.660156 C 765.355469 497.078125 765.894531 494.605469 766.429688 494.28125 C 767.078125 493.960938 767.507812 492.023438 767.507812 490.085938 C 767.507812 488.042969 768.261719 484.707031 769.121094 482.664062 C 769.980469 480.515625 770.734375 476.425781 770.734375 473.523438 C 770.734375 470.726562 771.164062 467.929688 771.703125 467.390625 C 772.242188 466.746094 772.992188 461.6875 773.316406 456.09375 C 773.53125 450.5 774.390625 437.269531 775.144531 426.730469 C 776.113281 411.777344 776.113281 403.386719 775.144531 389.078125 C 772.457031 350.03125 771.058594 337.554688 768.796875 332.066406 C 768.046875 330.347656 767.507812 327.121094 767.507812 324.859375 C 767.507812 322.601562 767.078125 320.34375 766.429688 320.019531 C 765.894531 319.699219 765.355469 317.761719 765.355469 315.71875 C 765.355469 313.671875 764.925781 311.738281 764.28125 311.414062 C 763.742188 311.09375 763.203125 309.476562 763.203125 307.863281 C 763.203125 306.25 762.453125 303.5625 761.589844 301.839844 C 760.730469 300.226562 759.976562 298.074219 759.976562 297.109375 C 759.976562 294.847656 757.933594 288.503906 756.105469 284.738281 C 755.246094 283.015625 754.597656 280.757812 754.597656 279.683594 C 754.597656 278.605469 754.167969 277.316406 753.523438 276.992188 C 752.984375 276.667969 752.449219 274.949219 752.449219 273.121094 C 752.449219 271.398438 752.125 270 751.585938 270 C 750.726562 270 748.359375 263.652344 747.390625 258.921875 C 747.070312 257.308594 746.421875 256.015625 745.886719 256.015625 C 745.347656 256.015625 744.917969 255.371094 744.917969 254.617188 C 744.917969 253.21875 742.875 248.273438 740.507812 243.96875 C 739.96875 242.894531 739.539062 241.386719 739.539062 240.527344 C 739.539062 239.664062 739.214844 238.804688 738.785156 238.589844 C 737.601562 238.160156 734.160156 231.382812 734.160156 229.554688 C 734.160156 228.695312 733.730469 228.046875 733.191406 228.046875 C 732.65625 228.046875 732.007812 227.1875 731.6875 226.113281 C 731.363281 225.144531 729.644531 221.808594 727.921875 218.90625 C 726.308594 215.894531 723.402344 210.835938 721.683594 207.609375 C 718.886719 202.339844 699.308594 173.402344 697.585938 172.113281 C 697.265625 171.789062 695.542969 169.636719 693.824219 167.273438 C 692.101562 164.90625 689.949219 162.214844 688.980469 161.140625 C 688.121094 160.171875 684.25 155.871094 680.375 151.566406 C 670.585938 140.703125 652.40625 122.628906 647.460938 118.867188 C 645.09375 117.144531 641.757812 114.132812 639.824219 112.195312 C 637.992188 110.261719 636.058594 108.648438 635.628906 108.648438 C 635.089844 108.648438 633.261719 107.25 631.433594 105.527344 C 629.710938 103.804688 626.914062 101.976562 625.191406 101.65625 L 622.179688 100.902344 Z M 622.71875 108.214844 " fill-opacity="1" fill-rule="nonzero"/><path fill="#09853d" d="M 396.179688 366.273438 C 395.101562 367.671875 394.242188 369.179688 394.242188 369.503906 C 394.242188 369.933594 393.382812 371.546875 392.199219 373.050781 C 391.121094 374.664062 389.078125 378.109375 387.574219 380.796875 C 383.699219 387.574219 368.964844 413.390625 344.222656 456.09375 C 335.722656 470.941406 319.589844 498.691406 305.496094 522.789062 C 301.195312 530.210938 291.191406 547.3125 283.335938 560.976562 C 275.484375 574.53125 265.160156 592.492188 260.316406 600.777344 C 218.582031 672.09375 195.238281 713.402344 195.238281 715.554688 C 195.238281 719.101562 207.5 728.03125 209.761719 726.09375 C 210.621094 725.339844 215.785156 716.519531 221.269531 706.410156 C 226.757812 696.191406 233.101562 684.574219 235.363281 680.378906 C 237.621094 676.289062 241.707031 668.761719 244.398438 663.703125 C 247.195312 658.648438 251.925781 649.933594 254.9375 644.34375 C 265.375 625.410156 283.230469 592.386719 315.5 532.46875 C 325.503906 513.859375 335.1875 497.078125 336.90625 495.359375 C 340.78125 491.378906 351.75 484.707031 358.527344 482.34375 C 370.144531 478.253906 386.605469 480.835938 389.507812 487.289062 C 390.261719 488.796875 391.550781 498.476562 392.519531 508.804688 C 394.027344 525.90625 403.386719 619.171875 411.453125 697.589844 C 413.175781 714.691406 415.863281 741.046875 417.367188 756.105469 C 418.984375 771.167969 420.703125 784.398438 421.347656 785.582031 C 422.316406 787.410156 423.179688 787.625 429.09375 786.980469 C 432.644531 786.65625 439.207031 786.011719 443.402344 785.582031 C 447.703125 785.257812 451.792969 784.289062 452.328125 783.535156 C 453.191406 782.570312 449.53125 749.328125 439.421875 667.253906 C 431.675781 604.109375 420.273438 510.957031 414.140625 460.398438 C 407.902344 409.839844 402.632812 367.351562 402.308594 365.953125 C 401.554688 362.832031 398.542969 362.941406 396.179688 366.273438 Z M 396.179688 366.273438 " fill-opacity="1" fill-rule="nonzero"/><path fill="#09853d" d="M 330.128906 568.183594 C 328.625 571.300781 324.75 578.722656 321.632812 584.640625 C 318.511719 590.558594 305.925781 614.761719 293.664062 638.425781 C 281.402344 662.089844 269.03125 685.757812 266.234375 691.132812 C 248.378906 725.125 239.234375 743.519531 239.773438 744.917969 C 240.417969 746.746094 249.777344 751.589844 261.285156 756.214844 C 265.695312 757.933594 271.398438 760.300781 273.980469 761.484375 C 290.328125 768.800781 315.609375 777.191406 330.992188 780.417969 C 346.050781 783.644531 353.902344 783.96875 354.871094 781.386719 C 355.195312 780.417969 353.796875 760.195312 351.75 736.527344 C 349.707031 712.757812 345.835938 667.363281 343.144531 635.734375 C 336.800781 560.761719 337.121094 563.234375 334.863281 562.804688 C 333.574219 562.589844 332.175781 564.09375 330.128906 568.183594 Z M 330.128906 568.183594 " fill-opacity="1" fill-rule="nonzero"/></svg>